<svg width="17" height="16" viewBox="0 0 17 16" fill="none" xmlns="http://www.w3.org/2000/svg">
<path d="M9.1001 2.2001C9.1001 1.86873 8.83147 1.6001 8.5001 1.6001C8.16873 1.6001 7.9001 1.86873 7.9001 2.2001V9.09096L5.53631 6.58812C5.30878 6.34721 4.92904 6.33636 4.68812 6.56389C4.44721 6.79142 4.43636 7.17116 4.66389 7.41207L8.06389 11.0121C8.17724 11.1321 8.33502 11.2001 8.5001 11.2001C8.66518 11.2001 8.82296 11.1321 8.93631 11.0121L12.3363 7.41207C12.5638 7.17116 12.553 6.79142 12.3121 6.56389C12.0712 6.33636 11.6914 6.34721 11.4639 6.58812L9.1001 9.09096V2.2001Z" fill="#0066FF"/>
<path d="M3.3001 10.2001C3.3001 9.86873 3.03147 9.6001 2.7001 9.6001C2.36873 9.6001 2.1001 9.86873 2.1001 10.2001V12.2001C2.1001 13.4151 3.08507 14.4001 4.3001 14.4001H12.7001C13.9151 14.4001 14.9001 13.4151 14.9001 12.2001V10.2001C14.9001 9.86873 14.6315 9.6001 14.3001 9.6001C13.9687 9.6001 13.7001 9.86873 13.7001 10.2001V12.2001C13.7001 12.7524 13.2524 13.2001 12.7001 13.2001H4.3001C3.74781 13.2001 3.3001 12.7524 3.3001 12.2001V10.2001Z" fill="#0066FF"/>
</svg>
