<svg width="28" height="24" viewBox="0 0 28 24" fill="none" xmlns="http://www.w3.org/2000/svg">
<path d="M15.5267 17.082C17.3899 16.8614 19.2205 16.4217 20.9807 15.772C19.49 14.1208 18.6664 11.9745 18.6697 9.75V9C18.6697 7.4087 18.0375 5.88258 16.9123 4.75736C15.7871 3.63214 14.261 3 12.6697 3C11.0784 3 9.55224 3.63214 8.42703 4.75736C7.30181 5.88258 6.66967 7.4087 6.66967 9V9.75C6.67268 11.9746 5.84865 14.121 4.35767 15.772C6.09067 16.412 7.91767 16.857 9.81267 17.082M15.5267 17.082C13.6287 17.3071 11.7107 17.3071 9.81267 17.082M15.5267 17.082C15.6708 17.5319 15.7066 18.0094 15.6313 18.4757C15.5559 18.942 15.3715 19.384 15.093 19.7656C14.8146 20.1472 14.45 20.4576 14.0289 20.6716C13.6077 20.8856 13.142 20.9972 12.6697 20.9972C12.1973 20.9972 11.7316 20.8856 11.3105 20.6716C10.8894 20.4576 10.5247 20.1472 10.2463 19.7656C9.96784 19.384 9.78343 18.942 9.70808 18.4757C9.63273 18.0094 9.66856 17.5319 9.81267 17.082" stroke="#303441" stroke-width="1.5" stroke-linecap="round" stroke-linejoin="round"/>
<rect x="21.6697" width="6" height="6" rx="3" fill="#E9304B"/>
</svg>
