<svg width="19" height="18" viewBox="0 0 19 18" fill="none" xmlns="http://www.w3.org/2000/svg">
<path d="M9.37998 11.2125C9.27998 11.2125 9.18623 11.1969 9.09873 11.1657C9.01123 11.1344 8.92998 11.0813 8.85498 11.0063L5.40498 7.5563C5.26748 7.4188 5.19873 7.2438 5.19873 7.0313C5.19873 6.8188 5.26748 6.6438 5.40498 6.5063C5.54248 6.3688 5.71748 6.30005 5.92998 6.30005C6.14248 6.30005 6.31748 6.3688 6.45498 6.5063L9.37998 9.4313L12.305 6.5063C12.4425 6.3688 12.6175 6.30005 12.83 6.30005C13.0425 6.30005 13.2175 6.3688 13.355 6.5063C13.4925 6.6438 13.5612 6.8188 13.5612 7.0313C13.5612 7.2438 13.4925 7.4188 13.355 7.5563L9.90498 11.0063C9.82998 11.0813 9.74873 11.1344 9.66123 11.1657C9.57373 11.1969 9.47998 11.2125 9.37998 11.2125Z" fill="#303441"/>
</svg>
