<svg width="12" height="12" viewBox="0 0 12 12" fill="none" xmlns="http://www.w3.org/2000/svg">
<g clip-path="url(#clip0_177_2329)">
<path d="M6.2999 5.9999L4.3499 4.0499C4.25824 3.95824 4.2124 3.84157 4.2124 3.6999C4.2124 3.55824 4.25824 3.44157 4.3499 3.3499C4.44157 3.25824 4.55824 3.2124 4.6999 3.2124C4.84157 3.2124 4.95824 3.25824 5.0499 3.3499L7.3499 5.6499C7.3999 5.6999 7.43532 5.75407 7.45615 5.8124C7.47699 5.87074 7.4874 5.93324 7.4874 5.9999C7.4874 6.06657 7.47699 6.12907 7.45615 6.1874C7.43532 6.24574 7.3999 6.2999 7.3499 6.3499L5.0499 8.6499C4.95824 8.74157 4.84157 8.7874 4.6999 8.7874C4.55824 8.7874 4.44157 8.74157 4.3499 8.6499C4.25824 8.55824 4.2124 8.44157 4.2124 8.2999C4.2124 8.15824 4.25824 8.04157 4.3499 7.9499L6.2999 5.9999Z" fill="white"/>
</g>
<defs>
<clipPath id="clip0_177_2329">
<rect width="12" height="12" fill="white"/>
</clipPath>
</defs>
</svg>
