<svg width="49" height="26" viewBox="0 0 49 26" fill="none" xmlns="http://www.w3.org/2000/svg">
<path d="M9.22634 0.348145L0 13.001L9.22634 25.6523H48.09V0.348145H9.22634ZM19.7926 16.9292C17.6227 18.2059 14.8295 17.4809 13.5529 15.311C12.2762 13.141 13.0012 10.3478 15.1711 9.07118C17.3411 7.79456 20.1343 8.51953 21.4109 10.6895C22.6875 12.8594 21.9626 15.6526 19.7926 16.9292ZM30.2689 20.6858L24.4458 23.934V6.10795L30.2689 2.85973V20.6858ZM39.6703 16.9292C37.5004 18.2059 34.7071 17.4809 33.4305 15.311C32.1539 13.141 32.8789 10.3478 35.0488 9.07118C37.2187 7.79456 40.0119 8.51953 41.2886 10.6895C42.5652 12.8594 41.8402 15.6526 39.6703 16.9292Z" fill="#0066FF"/>
</svg>
