<svg width="48" height="48" viewBox="0 0 48 48" fill="none" xmlns="http://www.w3.org/2000/svg">
<path fill-rule="evenodd" clip-rule="evenodd" d="M10.05 41.95C10.75 42.65 11.6052 43 12.6155 43H39V40H30.4385C31.6665 39.1897 32.6505 38.1538 33.3905 36.8925C34.1302 35.6308 34.5 34.1795 34.5 32.5385V23.5385H16.5V32.5385C16.5 34.1795 16.8698 35.6308 17.6095 36.8925C18.3495 38.1538 19.3335 39.1897 20.5615 40H12.6155C12.4358 40 12.2883 39.9423 12.173 39.827C12.0577 39.7117 12 39.5642 12 39.3845V8.6155C12 8.43583 12.0577 8.28833 12.173 8.173C12.2883 8.05767 12.4358 8 12.6155 8H16.5V11.154C16.5 11.6563 16.6692 12.0768 17.0075 12.4155C17.3462 12.7538 17.7668 12.923 18.2695 12.923H32.7305C33.2332 12.923 33.6537 12.7538 33.992 12.4155C34.3307 12.0768 34.5 11.6563 34.5 11.154V8H39V5H12.6155C11.6052 5 10.75 5.35 10.05 6.05C9.35 6.75 9 7.60517 9 8.6155V39.3845C9 40.3948 9.35 41.25 10.05 41.95Z" fill="#303441"/>
<g clip-path="url(#clip0_177_2053)">
<path fill-rule="evenodd" clip-rule="evenodd" d="M10.0937 41.9568C10.7937 42.6568 11.6489 43.0068 12.6592 43.0068H39.0437V40.0068H30.4822C31.7102 39.1965 32.6942 38.1607 33.4342 36.8993C34.1739 35.6377 34.5437 34.1863 34.5437 32.5453V23.4899H16.4614V32.5453C16.4614 34.1863 16.8511 35.6377 17.5907 36.8993C18.3307 38.1607 19.3147 39.1965 20.5427 40.0068H12.6592C12.4795 40.0068 12.332 39.9492 12.2167 39.8338C12.1014 39.7185 12.0437 39.571 12.0437 39.3913V8.62234C12.0437 8.44267 12.1014 8.29517 12.2167 8.17984C12.332 8.0645 12.4795 8.00684 12.6592 8.00684H16.5437V11.1608C16.5437 11.6632 16.7129 12.0837 17.0512 12.4223C17.3899 12.7607 17.8105 12.9298 18.3132 12.9298H32.7742C33.2769 12.9298 33.6974 12.7607 34.0357 12.4223C34.3744 12.0837 34.5437 11.6632 34.5437 11.1608V8.00684H39.0437V5.00684H12.6592C11.6489 5.00684 10.7937 5.35684 10.0937 6.05684C9.3937 6.75684 9.0437 7.612 9.0437 8.62234V39.3913C9.0437 40.4017 9.3937 41.2568 10.0937 41.9568Z" fill="#C2C2C2"/>
</g>
<path fill-rule="evenodd" clip-rule="evenodd" d="M26.752 19.4825C26.407 19.8275 25.9897 20 25.5 20C25.0103 20 24.593 19.8275 24.248 19.4825C23.903 19.1378 23.7305 18.7207 23.7305 18.231C23.7305 17.741 23.903 17.3237 24.248 16.979C24.593 16.634 25.0103 16.4615 25.5 16.4615C25.9897 16.4615 26.407 16.634 26.752 16.979C27.0967 17.3237 27.269 17.741 27.269 18.231C27.269 18.7207 27.0967 19.1378 26.752 19.4825Z" fill="#6A452C"/>
<defs>
<clipPath id="clip0_177_2053">
<rect width="26" height="18" fill="white" transform="translate(14.0437 22.0068)"/>
</clipPath>
</defs>
</svg>
