<svg width="49" height="48" viewBox="0 0 49 48" fill="none" xmlns="http://www.w3.org/2000/svg">
<path d="M14.8332 18.231V6C14.8332 5.575 14.977 5.21883 15.2647 4.9315C15.5524 4.64383 15.9087 4.5 16.3337 4.5C16.759 4.5 17.1152 4.64383 17.4022 4.9315C17.6895 5.21883 17.8332 5.575 17.8332 6V18.231H20.6027V6C20.6027 5.575 20.7464 5.21883 21.0337 4.9315C21.3214 4.64383 21.6779 4.5 22.1032 4.5C22.5282 4.5 22.8844 4.64383 23.1717 4.9315C23.4587 5.21883 23.6022 5.575 23.6022 6V18.231C23.6022 20.0207 23.0465 21.561 21.9352 22.852C20.8235 24.143 19.4562 24.9642 17.8332 25.3155V42C17.8332 42.425 17.6894 42.7812 17.4017 43.0685C17.114 43.3562 16.7577 43.5 16.3327 43.5C15.9074 43.5 15.5512 43.3562 15.2642 43.0685C14.9769 42.7812 14.8332 42.425 14.8332 42V25.3155C13.2102 24.9642 11.8429 24.143 10.7312 22.852C9.61988 21.561 9.06421 20.0207 9.06421 18.231V6C9.06421 5.575 9.20804 5.21883 9.49571 4.9315C9.78304 4.64383 10.1394 4.5 10.5647 4.5C10.9897 4.5 11.3459 4.64383 11.6332 4.9315C11.9202 5.21883 12.0637 5.575 12.0637 6V18.231H14.8332ZM34.0637 27.5H30.4127C29.8957 27.5 29.4647 27.3268 29.1197 26.9805C28.775 26.6338 28.6027 26.2045 28.6027 25.6925V14C28.6027 11.487 29.3295 9.2755 30.7832 7.3655C32.2369 5.45517 33.7137 4.5 35.2137 4.5C35.7754 4.5 36.2242 4.70133 36.5602 5.104C36.8959 5.50633 37.0637 6.0115 37.0637 6.6195V42C37.0637 42.425 36.9199 42.7812 36.6322 43.0685C36.3449 43.3562 35.9885 43.5 35.5632 43.5C35.1382 43.5 34.782 43.3562 34.4947 43.0685C34.2074 42.7812 34.0637 42.425 34.0637 42V27.5Z" fill="#7EC537"/>
</svg>
