<svg width="48" height="48" viewBox="0 0 48 48" fill="none" xmlns="http://www.w3.org/2000/svg">
<path fill-rule="evenodd" clip-rule="evenodd" d="M10.6155 41C9.60517 41 8.75 40.65 8.05 39.95C7.35 39.25 7 38.3948 7 37.3845V30.6155C7 29.6052 7.35 28.75 8.05 28.05C8.75 27.35 9.60517 27 10.6155 27H30.5V20.5C30.5 20.075 30.6438 19.7188 30.9315 19.4315C31.2192 19.1438 31.5755 19 32.0005 19C32.4258 19 32.782 19.1438 33.069 19.4315C33.3563 19.7188 33.5 20.075 33.5 20.5V27H37.3845C38.3948 27 39.25 27.35 39.95 28.05C40.65 28.75 41 29.6052 41 30.6155V37.3845C41 38.3948 40.65 39.25 39.95 39.95C39.25 40.65 38.3948 41 37.3845 41H10.6155ZM14.0015 35.769C14.5032 35.769 14.9232 35.5993 15.2615 35.26C15.5998 34.9207 15.769 34.5002 15.769 33.9985C15.769 33.4968 15.5993 33.0768 15.26 32.7385C14.9207 32.4002 14.5002 32.231 13.9985 32.231C13.4968 32.231 13.0768 32.4007 12.7385 32.74C12.4002 33.0793 12.231 33.4998 12.231 34.0015C12.231 34.5032 12.4007 34.9232 12.74 35.2615C13.0793 35.5998 13.4998 35.769 14.0015 35.769ZM21.0015 35.769C21.5032 35.769 21.9232 35.5993 22.2615 35.26C22.5998 34.9207 22.769 34.5002 22.769 33.9985C22.769 33.4968 22.5993 33.0768 22.26 32.7385C21.9207 32.4002 21.5002 32.231 20.9985 32.231C20.4968 32.231 20.0768 32.4007 19.7385 32.74C19.4002 33.0793 19.231 33.4998 19.231 34.0015C19.231 34.5032 19.4007 34.9232 19.74 35.2615C20.0793 35.5998 20.4998 35.769 21.0015 35.769ZM28.0015 35.769C28.5032 35.769 28.9232 35.5993 29.2615 35.26C29.5998 34.9207 29.769 34.5002 29.769 33.9985C29.769 33.4968 29.5993 33.0768 29.26 32.7385C28.9207 32.4002 28.5002 32.231 27.9985 32.231C27.4968 32.231 27.0768 32.4007 26.7385 32.74C26.4002 33.0793 26.231 33.4998 26.231 34.0015C26.231 34.5032 26.4007 34.9232 26.74 35.2615C27.0793 35.5998 27.4998 35.769 28.0015 35.769Z" fill="#303441"/>
<path fill-rule="evenodd" clip-rule="evenodd" d="M30.5755 15.196C31.0028 15.0653 31.4777 15 32 15C32.5 15 32.9692 15.0653 33.4075 15.196C33.8462 15.327 34.2502 15.5232 34.6195 15.7845C35.0115 15.9795 35.4172 16.07 35.8365 16.056C36.2558 16.0417 36.6207 15.8795 36.931 15.5695C37.241 15.2592 37.3877 14.8943 37.371 14.475C37.3543 14.0557 37.1703 13.7383 36.819 13.523C36.0937 13.013 35.333 12.6317 34.537 12.379C33.741 12.1263 32.8953 12 32 12C31.1207 12 30.279 12.1263 29.475 12.379C28.671 12.6317 27.9063 13.013 27.181 13.523C26.8297 13.7383 26.6457 14.0557 26.629 14.475C26.6123 14.8943 26.759 15.2592 27.069 15.5695C27.3793 15.8795 27.739 16.0417 28.148 16.056C28.557 16.07 28.9577 15.9795 29.35 15.7845C29.7397 15.5232 30.1482 15.327 30.5755 15.196ZM27.775 8.729C29.0737 8.243 30.482 8 32 8C33.518 8 34.9263 8.243 36.225 8.729C37.5237 9.21467 38.6858 9.86917 39.7115 10.6925C40.0628 10.9488 40.443 11.07 40.852 11.056C41.261 11.0417 41.609 10.891 41.896 10.604C42.209 10.291 42.359 9.93517 42.346 9.5365C42.3333 9.13783 42.1617 8.80383 41.831 8.5345C40.477 7.4295 38.9698 6.56417 37.3095 5.9385C35.6492 5.31283 33.8793 5 32 5C30.1207 5 28.3508 5.31283 26.6905 5.9385C25.0302 6.56417 23.523 7.4295 22.169 8.5345C21.8383 8.80383 21.6667 9.13783 21.654 9.5365C21.641 9.93517 21.791 10.291 22.104 10.604C22.391 10.891 22.739 11.0417 23.148 11.056C23.557 11.07 23.9372 10.9488 24.2885 10.6925C25.3142 9.86917 26.4763 9.21467 27.775 8.729Z" fill="#FF0000"/>
</svg>
