<svg width="49" height="48" viewBox="0 0 49 48" fill="none" xmlns="http://www.w3.org/2000/svg">
<path d="M21.8333 25.4999V28.9809C21.8333 29.4062 21.9801 29.7657 22.2738 30.0594C22.5674 30.353 22.9269 30.4999 23.3523 30.4999H25.3143C25.7526 30.4999 26.1153 30.353 26.4023 30.0594C26.6896 29.7657 26.8333 29.4062 26.8333 28.9809V25.4999H30.3143C30.7526 25.4999 31.1153 25.353 31.4023 25.0594C31.6896 24.7657 31.8333 24.4062 31.8333 23.9809V22.0189C31.8333 21.5805 31.6896 21.2179 31.4023 20.9309C31.1153 20.6435 30.7526 20.4999 30.3143 20.4999H26.8333V17.0189C26.8333 16.5805 26.6896 16.2179 26.4023 15.9309C26.1153 15.6435 25.7526 15.4999 25.3143 15.4999H23.3523C22.9269 15.4999 22.5674 15.6435 22.2738 15.9309C21.9801 16.2179 21.8333 16.5805 21.8333 17.0189V20.4999H18.3523C17.9269 20.4999 17.5674 20.6435 17.2738 20.9309C16.9801 21.2179 16.8333 21.5805 16.8333 22.0189V23.9809C16.8333 24.4062 16.9801 24.7657 17.2738 25.0594C17.5674 25.353 17.9269 25.4999 18.3523 25.4999H21.8333ZM24.3333 42.7419C24.1256 42.7419 23.9218 42.7252 23.7218 42.6919C23.5218 42.6585 23.3281 42.6085 23.1408 42.5419C18.9231 41.0419 15.5674 38.3824 13.0738 34.5634C10.5801 30.744 9.33325 26.6229 9.33325 22.1999V13.1924C9.33325 12.4357 9.55259 11.753 9.99125 11.1444C10.4296 10.5354 10.9936 10.0937 11.6833 9.81938L23.0678 5.56938C23.4961 5.41538 23.9179 5.33838 24.3333 5.33838C24.7486 5.33838 25.1704 5.41538 25.5988 5.56938L36.9833 9.81938C37.6729 10.0937 38.2369 10.5354 38.6753 11.1444C39.1139 11.753 39.3333 12.4357 39.3333 13.1924V22.1999C39.3333 26.6229 38.0864 30.744 35.5928 34.5634C33.0991 38.3824 29.7434 41.0419 25.5258 42.5419C25.3384 42.6085 25.1448 42.6585 24.9448 42.6919C24.7448 42.7252 24.5409 42.7419 24.3333 42.7419Z" fill="#3B84F2"/>
<path fill-rule="evenodd" clip-rule="evenodd" d="M21.8333 28.9809V25.4999H18.3523C17.9219 25.4999 17.5613 25.3542 17.2703 25.0629C16.9789 24.7719 16.8333 24.4112 16.8333 23.9809V22.0189C16.8333 21.5805 16.9789 21.2179 17.2703 20.9309C17.5613 20.6435 17.9219 20.4999 18.3523 20.4999H21.8333V17.0189C21.8333 16.5805 21.9789 16.2179 22.2703 15.9309C22.5613 15.6435 22.9219 15.4999 23.3523 15.4999H25.3143C25.7526 15.4999 26.1153 15.6435 26.4023 15.9309C26.6896 16.2179 26.8333 16.5805 26.8333 17.0189V20.4999H30.3143C30.7526 20.4999 31.1153 20.6435 31.4023 20.9309C31.6896 21.2179 31.8333 21.5805 31.8333 22.0189V23.9809C31.8333 24.4112 31.6896 24.7719 31.4023 25.0629C31.1153 25.3542 30.7526 25.4999 30.3143 25.4999H26.8333V28.9809C26.8333 29.4112 26.6896 29.7719 26.4023 30.0629C26.1153 30.3542 25.7526 30.4999 25.3143 30.4999H23.3523C22.9219 30.4999 22.5613 30.3542 22.2703 30.0629C21.9789 29.7719 21.8333 29.4112 21.8333 28.9809Z" fill="#0066FF" fill-opacity="0.1"/>
</svg>
