<svg width="49" height="48" viewBox="0 0 49 48" fill="none" xmlns="http://www.w3.org/2000/svg">
<path fill-rule="evenodd" clip-rule="evenodd" d="M25.9187 40.021C25.5737 40.366 25.1564 40.5385 24.6667 40.5385C24.1771 40.5385 23.7597 40.366 23.4147 40.021C23.0701 39.6763 22.8977 39.259 22.8977 38.769C22.8977 38.2793 23.0701 37.8622 23.4147 37.5175C23.7597 37.1725 24.1771 37 24.6667 37C25.1564 37 25.5737 37.1725 25.9187 37.5175C26.2634 37.8622 26.4357 38.2793 26.4357 38.769C26.4357 39.259 26.2634 39.6763 25.9187 40.021Z" fill="#303441" fill-opacity="0.5"/>
<path d="M15.2822 45C14.2719 45 13.4167 44.65 12.7167 43.95C12.0167 43.25 11.6667 42.3948 11.6667 41.3845V6.6155C11.6667 5.60517 12.0167 4.75 12.7167 4.05C13.4167 3.35 14.2719 3 15.2822 3H34.0512C35.0616 3 35.9167 3.35 36.6167 4.05C37.3167 4.75 37.6667 5.60517 37.6667 6.6155V41.3845C37.6667 42.3948 37.3167 43.25 36.6167 43.95C35.9167 44.65 35.0616 45 34.0512 45H15.2822ZM24.6667 40.5385C25.1564 40.5385 25.5737 40.366 25.9187 40.021C26.2634 39.6763 26.4357 39.259 26.4357 38.769C26.4357 38.2793 26.2634 37.8622 25.9187 37.5175C25.5737 37.1725 25.1564 37 24.6667 37C24.1771 37 23.7597 37.1725 23.4147 37.5175C23.0701 37.8622 22.8977 38.2793 22.8977 38.769C22.8977 39.259 23.0701 39.6763 23.4147 40.021C23.7597 40.366 24.1771 40.5385 24.6667 40.5385ZM14.6667 32.5385H34.6667V11.5H14.6667V32.5385Z" fill="#303441"/>
<path d="M14.6667 32.5385H34.6667V11.5H14.6667V32.5385Z" fill="#0066FF" fill-opacity="0.1"/>
</svg>
