<svg width="49" height="48" viewBox="0 0 49 48" fill="none" xmlns="http://www.w3.org/2000/svg">
<path fill-rule="evenodd" clip-rule="evenodd" d="M17.4457 30.928C16.9391 31.4377 16.3219 31.6925 15.5942 31.6925C14.8666 31.6925 14.2481 31.4392 13.7387 30.9325C13.2291 30.4262 12.9742 29.8092 12.9742 29.0815C12.9742 28.3538 13.2276 27.7352 13.7342 27.2255C14.2406 26.7162 14.8576 26.4615 15.5852 26.4615C16.3129 26.4615 16.9316 26.7147 17.4412 27.221C17.9506 27.7277 18.2052 28.3448 18.2052 29.0725C18.2052 29.8002 17.9521 30.4187 17.4457 30.928ZM35.5992 30.928C35.0929 31.4377 34.4759 31.6925 33.7482 31.6925C33.0206 31.6925 32.4019 31.4392 31.8922 30.9325C31.3829 30.4262 31.1282 29.8092 31.1282 29.0815C31.1282 28.3538 31.3814 27.7352 31.8877 27.2255C32.3944 26.7162 33.0116 26.4615 33.7392 26.4615C34.4669 26.4615 35.0854 26.7147 35.5947 27.221C36.1044 27.7277 36.3592 28.3448 36.3592 29.0725C36.3592 29.8002 36.1059 30.4187 35.5992 30.928Z" fill="#FFD600"/>
<path d="M11.8822 21.154H37.4512L35.0822 14.404C35.0309 14.2757 34.9539 14.1763 34.8512 14.106C34.7486 14.0353 34.6267 14 34.4857 14H14.8477C14.7067 14 14.5849 14.0353 14.4822 14.106C14.3796 14.1763 14.3026 14.2757 14.2512 14.404L11.8822 21.154Z" fill="#F0F4FF"/>
<path d="M11.8972 37V38.8845C11.8972 39.4722 11.6914 39.9717 11.2797 40.383C10.8681 40.7943 10.3681 41 9.77975 41C9.19175 41 8.69258 40.7943 8.28225 40.383C7.87191 39.9717 7.66675 39.4722 7.66675 38.8845V24.777C7.66675 24.5693 7.68025 24.3617 7.70725 24.154C7.73425 23.9463 7.77958 23.7473 7.84325 23.557L11.4247 13.431C11.6644 12.7107 12.0987 12.1255 12.7277 11.6755C13.3567 11.2252 14.0607 11 14.8397 11H34.4937C35.2727 11 35.9767 11.2252 36.6057 11.6755C37.2347 12.1255 37.6691 12.7107 37.9088 13.431L41.4902 23.557C41.5539 23.7473 41.5992 23.9463 41.6262 24.154C41.6532 24.3617 41.6667 24.5693 41.6667 24.777V38.8845C41.6667 39.4722 41.4609 39.9717 41.0493 40.383C40.6373 40.7943 40.1372 41 39.5492 41C38.9609 41 38.4616 40.7943 38.0512 40.383C37.6412 39.9717 37.4362 39.4722 37.4362 38.8845V37H11.8972ZM11.8822 21.154H37.4512L35.0822 14.404C35.0309 14.2757 34.9539 14.1763 34.8512 14.106C34.7486 14.0353 34.6267 14 34.4857 14H14.8477C14.7067 14 14.5849 14.0353 14.4822 14.106C14.3796 14.1763 14.3026 14.2757 14.2512 14.404L11.8822 21.154ZM15.5942 31.6925C16.3219 31.6925 16.9391 31.4377 17.4457 30.928C17.9521 30.4187 18.2052 29.8002 18.2052 29.0725C18.2052 28.3448 17.9506 27.7277 17.4412 27.221C16.9316 26.7147 16.3129 26.4615 15.5852 26.4615C14.8576 26.4615 14.2406 26.7162 13.7342 27.2255C13.2276 27.7352 12.9742 28.3538 12.9742 29.0815C12.9742 29.8092 13.2291 30.4262 13.7387 30.9325C14.2481 31.4392 14.8666 31.6925 15.5942 31.6925ZM33.7482 31.6925C34.4759 31.6925 35.0929 31.4377 35.5992 30.928C36.1059 30.4187 36.3592 29.8002 36.3592 29.0725C36.3592 28.3448 36.1044 27.7277 35.5947 27.221C35.0854 26.7147 34.4669 26.4615 33.7392 26.4615C33.0116 26.4615 32.3944 26.7162 31.8877 27.2255C31.3814 27.7352 31.1282 28.3538 31.1282 29.0815C31.1282 29.8092 31.3829 30.4262 31.8922 30.9325C32.4019 31.4392 33.0206 31.6925 33.7482 31.6925Z" fill="#EE872F"/>
<g clip-path="url(#clip0_177_2060)">
<path d="M11.8972 37V38.8845C11.8972 39.4722 11.6914 39.9717 11.2797 40.383C10.8681 40.7943 10.3681 41 9.77975 41C9.19175 41 8.69258 40.7943 8.28225 40.383C7.87191 39.9717 7.66675 39.4722 7.66675 38.8845V24.777C7.66675 24.5693 7.68025 24.3617 7.70725 24.154C7.73425 23.9463 7.77958 23.7473 7.84325 23.557L11.4247 13.431C11.6644 12.7107 12.0987 12.1255 12.7277 11.6755C13.3567 11.2252 14.0607 11 14.8397 11H34.4937C35.2727 11 35.9767 11.2252 36.6057 11.6755C37.2347 12.1255 37.6691 12.7107 37.9088 13.431L41.4902 23.557C41.5539 23.7473 41.5992 23.9463 41.6262 24.154C41.6532 24.3617 41.6667 24.5693 41.6667 24.777V38.8845C41.6667 39.4722 41.4609 39.9717 41.0493 40.383C40.6373 40.7943 40.1372 41 39.5492 41C38.9609 41 38.4616 40.7943 38.0512 40.383C37.6412 39.9717 37.4362 39.4722 37.4362 38.8845V37H11.8972ZM11.8822 21.154H37.4512L35.0822 14.404C35.0309 14.2757 34.9539 14.1763 34.8512 14.106C34.7486 14.0353 34.6267 14 34.4857 14H14.8477C14.7067 14 14.5849 14.0353 14.4822 14.106C14.3796 14.1763 14.3026 14.2757 14.2512 14.404L11.8822 21.154ZM15.5942 31.6925C16.3219 31.6925 16.9391 31.4377 17.4457 30.928C17.9521 30.4187 18.2052 29.8002 18.2052 29.0725C18.2052 28.3448 17.9506 27.7277 17.4412 27.221C16.9316 26.7147 16.3129 26.4615 15.5852 26.4615C14.8576 26.4615 14.2406 26.7162 13.7342 27.2255C13.2276 27.7352 12.9742 28.3538 12.9742 29.0815C12.9742 29.8092 13.2291 30.4262 13.7387 30.9325C14.2481 31.4392 14.8666 31.6925 15.5942 31.6925ZM33.7482 31.6925C34.4759 31.6925 35.0929 31.4377 35.5992 30.928C36.1059 30.4187 36.3592 29.8002 36.3592 29.0725C36.3592 28.3448 36.1044 27.7277 35.5947 27.221C35.0854 26.7147 34.4669 26.4615 33.7392 26.4615C33.0116 26.4615 32.3944 26.7162 31.8877 27.2255C31.3814 27.7352 31.1282 28.3538 31.1282 29.0815C31.1282 29.8092 31.3829 30.4262 31.8922 30.9325C32.4019 31.4392 33.0206 31.6925 33.7482 31.6925Z" fill="#647C9C"/>
</g>
<defs>
<clipPath id="clip0_177_2060">
<rect width="34" height="4" fill="white" transform="translate(7.66675 37)"/>
</clipPath>
</defs>
</svg>
