<svg width="48" height="48" viewBox="0 0 48 48" fill="none" xmlns="http://www.w3.org/2000/svg">
<g clip-path="url(#clip0_177_2057)">
<path d="M12.0971 39.1155C10.5357 39.1155 9.21023 38.5695 8.12056 37.4775C7.0309 36.3855 6.48606 35.0597 6.48606 33.5H4.90906C4.39706 33.5 3.96773 33.3268 3.62106 32.9805C3.27473 32.6338 3.10156 32.2045 3.10156 31.6925V12.6155C3.10156 11.6052 3.45156 10.75 4.15156 10.05C4.85156 9.35 5.70656 9 6.71656 9H30.3321C31.3264 9 32.1776 9.354 32.8856 10.062C33.5936 10.77 33.9476 11.6212 33.9476 12.6155V16.6155H37.4476C38.0199 16.6155 38.5622 16.7435 39.0746 16.9995C39.5866 17.2555 40.0082 17.6095 40.3396 18.0615L45.3551 24.777C45.4757 24.9277 45.5662 25.0933 45.6266 25.274C45.6866 25.455 45.7166 25.6508 45.7166 25.8615V31.6925C45.7166 32.2045 45.5434 32.6338 45.1971 32.9805C44.8504 33.3268 44.4211 33.5 43.9091 33.5H42.1016C42.1016 35.0597 41.5551 36.3855 40.4621 37.4775C39.3694 38.5695 38.0426 39.1155 36.4816 39.1155C34.9206 39.1155 33.5951 38.5695 32.5051 37.4775C31.4154 36.3855 30.8706 35.0597 30.8706 33.5H17.7166C17.7166 35.064 17.1702 36.3908 16.0776 37.4805C14.9849 38.5705 13.6581 39.1155 12.0971 39.1155ZM12.1016 36.1155C12.8349 36.1155 13.4541 35.8628 13.9591 35.3575C14.4641 34.8525 14.7166 34.2333 14.7166 33.5C14.7166 32.7667 14.4641 32.1473 13.9591 31.642C13.4541 31.137 12.8349 30.8845 12.1016 30.8845C11.3682 30.8845 10.7489 31.137 10.2436 31.642C9.73856 32.1473 9.48606 32.7667 9.48606 33.5C9.48606 34.2333 9.73856 34.8525 10.2436 35.3575C10.7489 35.8628 11.3682 36.1155 12.1016 36.1155ZM36.4861 36.1155C37.2194 36.1155 37.8386 35.8628 38.3436 35.3575C38.8489 34.8525 39.1016 34.2333 39.1016 33.5C39.1016 32.7667 38.8489 32.1473 38.3436 31.642C37.8386 31.137 37.2194 30.8845 36.4861 30.8845C35.7527 30.8845 35.1334 31.137 34.6281 31.642C34.1231 32.1473 33.8706 32.7667 33.8706 33.5C33.8706 34.2333 34.1231 34.8525 34.6281 35.3575C35.1334 35.8628 35.7527 36.1155 36.4861 36.1155ZM33.9476 26.5H42.9091L37.9091 19.8655C37.8451 19.7885 37.7714 19.7275 37.6881 19.6825C37.6047 19.6378 37.5117 19.6155 37.4091 19.6155H33.9476V26.5Z" fill="#448CF4"/>
</g>
<circle cx="11.7812" cy="33.1924" r="5.5" fill="#647C9C" stroke="white"/>
<g clip-path="url(#clip1_177_2057)">
<path d="M11.2892 39.1155C9.72787 39.1155 8.40237 38.5695 7.3127 37.4775C6.22303 36.3855 5.6782 35.0597 5.6782 33.5H4.1012C3.5892 33.5 3.15987 33.3268 2.8132 32.9805C2.46687 32.6338 2.2937 32.2045 2.2937 31.6925V12.6155C2.2937 11.6052 2.6437 10.75 3.3437 10.05C4.0437 9.35 4.8987 9 5.9087 9H29.5242C30.5185 9 31.3697 9.354 32.0777 10.062C32.7857 10.77 33.1397 11.6212 33.1397 12.6155V16.6155H36.6397C37.212 16.6155 37.7544 16.7435 38.2667 16.9995C38.7787 17.2555 39.2004 17.6095 39.5317 18.0615L44.5472 24.777C44.6679 24.9277 44.7584 25.0933 44.8187 25.274C44.8787 25.455 44.9087 25.6508 44.9087 25.8615V31.6925C44.9087 32.2045 44.7355 32.6338 44.3892 32.9805C44.0425 33.3268 43.6132 33.5 43.1012 33.5H41.2937C41.2937 35.0597 40.7472 36.3855 39.6542 37.4775C38.5615 38.5695 37.2347 39.1155 35.6737 39.1155C34.1127 39.1155 32.7872 38.5695 31.6972 37.4775C30.6075 36.3855 30.0627 35.0597 30.0627 33.5H16.9087C16.9087 35.064 16.3624 36.3908 15.2697 37.4805C14.177 38.5705 12.8502 39.1155 11.2892 39.1155ZM11.2937 36.1155C12.027 36.1155 12.6462 35.8628 13.1512 35.3575C13.6562 34.8525 13.9087 34.2333 13.9087 33.5C13.9087 32.7667 13.6562 32.1473 13.1512 31.642C12.6462 31.137 12.027 30.8845 11.2937 30.8845C10.5604 30.8845 9.94103 31.137 9.4357 31.642C8.9307 32.1473 8.6782 32.7667 8.6782 33.5C8.6782 34.2333 8.9307 34.8525 9.4357 35.3575C9.94103 35.8628 10.5604 36.1155 11.2937 36.1155ZM35.6782 36.1155C36.4115 36.1155 37.0307 35.8628 37.5357 35.3575C38.041 34.8525 38.2937 34.2333 38.2937 33.5C38.2937 32.7667 38.041 32.1473 37.5357 31.642C37.0307 31.137 36.4115 30.8845 35.6782 30.8845C34.9449 30.8845 34.3255 31.137 33.8202 31.642C33.3152 32.1473 33.0627 32.7667 33.0627 33.5C33.0627 34.2333 33.3152 34.8525 33.8202 35.3575C34.3255 35.8628 34.9449 36.1155 35.6782 36.1155ZM33.1397 26.5H42.1012L37.1012 19.8655C37.0372 19.7885 36.9635 19.7275 36.8802 19.6825C36.7969 19.6378 36.7039 19.6155 36.6012 19.6155H33.1397V26.5Z" fill="#B8BCC8"/>
</g>
<circle cx="37.0156" cy="34.2021" r="4.5" fill="#647C9C" stroke="white"/>
<defs>
<clipPath id="clip0_177_2057">
<rect width="32" height="24" fill="white" transform="translate(2 8)"/>
</clipPath>
<clipPath id="clip1_177_2057">
<rect width="12" height="26" fill="white" transform="translate(33.9968 8)"/>
</clipPath>
</defs>
</svg>
