<svg width="48" height="48" viewBox="0 0 48 48" fill="none" xmlns="http://www.w3.org/2000/svg">
<path fill-rule="evenodd" clip-rule="evenodd" d="M36.5385 29.042C36.4358 28.1167 36.0775 27.2168 35.4635 26.3425C34.8495 25.4682 34.013 24.8297 32.954 24.427L18.1615 18.7075C17.9538 18.6408 17.747 18.587 17.541 18.546C17.335 18.505 17.0995 18.4845 16.8345 18.4845H14.6155V14.669C14.6155 14.0793 14.7495 13.5237 15.0175 13.002C15.2855 12.48 15.6605 12.055 16.1425 11.727L26.027 4.673C26.3597 4.43367 26.6998 4.26167 27.0475 4.157C27.3952 4.05233 27.7505 4 28.1135 4C28.4765 4 28.8398 4.05233 29.2035 4.157C29.5672 4.26167 29.9007 4.43367 30.204 4.673L40.0885 11.727C40.5705 12.055 40.9455 12.48 41.2135 13.002C41.4815 13.5237 41.6155 14.0793 41.6155 14.669V29.042H36.5385ZM30.1155 15.4655C30.3565 15.4655 30.5673 15.375 30.748 15.194C30.929 15.0133 31.0195 14.8025 31.0195 14.5615C31.0195 14.3205 30.929 14.1097 30.748 13.929C30.5673 13.748 30.3565 13.6575 30.1155 13.6575C29.8745 13.6575 29.6637 13.748 29.483 13.929C29.302 14.1097 29.2115 14.3205 29.2115 14.5615C29.2115 14.8025 29.302 15.0133 29.483 15.194C29.6637 15.375 29.8745 15.4655 30.1155 15.4655ZM26.1155 15.4655C26.3565 15.4655 26.5673 15.375 26.748 15.194C26.929 15.0133 27.0195 14.8025 27.0195 14.5615C27.0195 14.3205 26.929 14.1097 26.748 13.929C26.5673 13.748 26.3565 13.6575 26.1155 13.6575C25.8745 13.6575 25.6637 13.748 25.483 13.929C25.302 14.1097 25.2115 14.3205 25.2115 14.5615C25.2115 14.8025 25.302 15.0133 25.483 15.194C25.6637 15.375 25.8745 15.4655 26.1155 15.4655ZM30.1155 19.4655C30.3565 19.4655 30.5673 19.375 30.748 19.194C30.929 19.0133 31.0195 18.8025 31.0195 18.5615C31.0195 18.3205 30.929 18.1097 30.748 17.929C30.5673 17.748 30.3565 17.6575 30.1155 17.6575C29.8745 17.6575 29.6637 17.748 29.483 17.929C29.302 18.1097 29.2115 18.3205 29.2115 18.5615C29.2115 18.8025 29.302 19.0133 29.483 19.194C29.6637 19.375 29.8745 19.4655 30.1155 19.4655ZM26.1155 19.4655C26.3565 19.4655 26.5673 19.375 26.748 19.194C26.929 19.0133 27.0195 18.8025 27.0195 18.5615C27.0195 18.3205 26.929 18.1097 26.748 17.929C26.5673 17.748 26.3565 17.6575 26.1155 17.6575C25.8745 17.6575 25.6637 17.748 25.483 17.929C25.302 18.1097 25.2115 18.3205 25.2115 18.5615C25.2115 18.8025 25.302 19.0133 25.483 19.194C25.6637 19.375 25.8745 19.4655 26.1155 19.4655Z" fill="#2972FF"/>
<path fill-rule="evenodd" clip-rule="evenodd" d="M27.5 42.519C27.8153 42.6063 28.1885 42.6435 28.6195 42.6305C29.0505 42.6178 29.4145 42.5602 29.7115 42.4575L43.6155 37.523C43.6155 36.4923 43.2572 35.6385 42.5405 34.9615C41.8238 34.2845 40.9642 33.946 39.9615 33.946H27.954C27.572 33.946 27.1733 33.9217 26.758 33.873C26.3423 33.8243 25.9667 33.7385 25.631 33.6155L22.5845 32.5655C22.3435 32.4782 22.173 32.3243 22.073 32.104C21.973 31.8833 21.9563 31.6533 22.023 31.414C22.0897 31.2047 22.2403 31.043 22.475 30.929C22.7097 30.8147 22.9475 30.8012 23.1885 30.8885L25.746 31.8155C26.0847 31.9462 26.4367 32.039 26.802 32.094C27.1673 32.1493 27.5808 32.177 28.0425 32.177H31.8695C32.3745 32.177 32.8045 32.0148 33.1595 31.6905C33.5148 31.3662 33.6925 30.9308 33.6925 30.3845C33.6925 29.8922 33.5187 29.3973 33.171 28.9C32.8237 28.4027 32.3975 28.0642 31.8925 27.8845L18.946 23.1C18.7383 23.0387 18.5307 22.9848 18.323 22.9385C18.1153 22.8925 17.9013 22.8695 17.681 22.8695H14V38.6305L27.5 42.519Z" fill="#FED7C3"/>
<path fill-rule="evenodd" clip-rule="evenodd" d="M4 38.946C4 39.8023 4.29883 40.5293 4.8965 41.127C5.49383 41.7243 6.22067 42.023 7.077 42.023H7.9235C8.77983 42.023 9.50667 41.7243 10.104 41.127C10.7013 40.5293 11 39.8023 11 38.946V25.946C11 25.0897 10.7013 24.3628 10.104 23.7655C9.50667 23.1682 8.77983 22.8695 7.9235 22.8695H7.077C6.22067 22.8695 5.49383 23.1682 4.8965 23.7655C4.29883 24.3628 4 25.0897 4 25.946V38.946Z" fill="#303441"/>
</svg>
