<svg width="336" height="125" viewBox="0 0 336 125" fill="none" xmlns="http://www.w3.org/2000/svg">
<g clip-path="url(#clip0_177_2073)">
<rect x="0.5" width="335" height="125" rx="8" fill="#F0F4FF"/>
<path d="M27.604 41.028V39.044H18.308V36.964H30.036V41.22C30.036 42.66 29.956 44.068 29.732 45.172H27.3C27.428 44.532 27.508 43.78 27.556 43.028C26.356 43.284 24.964 43.332 23.284 43.332H18.308V41.268H23.332C24.9 41.268 26.388 41.252 27.604 41.028ZM22.948 48.068H17.588V45.988H30.772V48.068H25.38V51.812H22.948V48.068ZM43.3634 40.996H45.5554V42.948H40.7234V44.276H46.2114V46.324H32.8674V44.276H38.3074V42.948H33.5234V40.996H35.5394V38.916H33.7634V36.964H45.2994V38.916H43.5234V40.036C43.5234 40.356 43.4754 40.74 43.3634 40.996ZM41.1394 38.916H37.9394V40.996H40.9954C41.0914 40.772 41.1394 40.436 41.1394 40.148V38.916ZM33.7634 47.156H36.2114V49.62H45.5554V51.652H33.7634V47.156ZM54.8828 42.772V38.404H49.0908V37.284H56.1628V42.58C56.1628 43.988 56.0347 45.588 55.8108 46.58H54.5468C54.7548 45.588 54.8828 44.068 54.8828 42.772ZM50.8348 42.596H52.1308V49.396H55.4748C56.8988 49.396 58.0988 49.076 58.7868 48.484V37.028H60.0668V43.044H62.4028V44.164H60.0668V51.332H58.7868V49.572C58.0828 50.196 56.8188 50.516 55.2828 50.516H48.5788V49.396H50.8348V42.596ZM73.4904 39.012H68.7064V36.964H75.9064V38.66H78.3224V36.804H80.7544V47.172H78.3224V44.292H75.3464V42.26H78.3224V40.692H75.6504C74.9144 43.86 72.4984 45.556 68.3544 45.94V43.892C71.7944 43.444 73.4744 41.764 73.4904 39.012ZM80.9944 49.62V51.652H69.5384V46.388H71.9704V49.62H80.9944ZM84.0658 39.012V36.964H91.8738V39.012H89.1538V39.172C89.1538 41.7 90.2418 42.676 92.1458 43.06V45.14C90.4178 44.916 88.8498 44.164 88.0018 43.044C87.1058 44.18 85.4738 45.108 83.7778 45.316V43.236C85.6658 42.836 86.7538 41.732 86.7538 39.172V39.012H84.0658ZM96.1138 36.804V45.412H93.6818V41.94H91.0417V39.892H93.6818V36.804H96.1138ZM84.7218 48.116V46.068H96.1138V51.812H93.6818V48.116H84.7218ZM99.8731 39.892C99.8731 39.06 100.225 38.42 100.881 37.988C101.873 37.284 103.569 37.028 105.649 37.028C107.745 37.028 109.409 37.284 110.417 37.988C111.073 38.42 111.425 39.06 111.425 39.892C111.425 40.724 111.073 41.348 110.417 41.812C109.409 42.516 107.745 42.772 105.649 42.772C103.569 42.772 101.873 42.516 100.881 41.812C100.225 41.348 99.8731 40.724 99.8731 39.892ZM101.169 39.892C101.169 40.356 101.377 40.74 101.809 41.028C102.497 41.492 103.809 41.684 105.649 41.684C107.489 41.684 108.785 41.492 109.489 41.028C109.921 40.74 110.129 40.356 110.129 39.892C110.129 39.412 109.921 39.044 109.489 38.772C108.785 38.308 107.489 38.1 105.649 38.1C103.809 38.1 102.497 38.308 101.809 38.772C101.377 39.044 101.169 39.412 101.169 39.892ZM99.1851 45.7V44.596H112.081V45.7H99.1851ZM101.441 47.364V50.308H111.393V51.412H100.161V47.364H101.441ZM121.425 41.22C121.425 42.596 120.993 43.412 119.841 44.388C118.673 45.396 118.433 45.892 118.433 46.852V47.236H117.105V46.756C117.105 45.508 117.409 44.884 118.769 43.716C119.793 42.836 120.113 42.244 120.113 41.252C120.113 39.812 119.217 38.9 117.857 38.9C116.465 38.9 115.601 39.876 115.601 41.268H114.273V41.22C114.273 39.236 115.537 37.732 117.857 37.732C120.161 37.732 121.425 39.236 121.425 41.22ZM118.465 48.756V50.484H117.073V48.756H118.465Z" fill="#0066FF"/>
<path d="M22.668 63.172V70.468H25.884V63.172H30.012V83.836H18.54V63.172H22.668ZM22.668 80.404H25.884V73.972H22.668V80.404ZM32.196 62.788H36.396V71.452H39.492V74.956H36.396V85.276H32.196V62.788ZM60.0111 72.244H46.3071V74.476H60.2751V77.956H53.1711V80.908H61.0911V84.34H41.0271V80.908H48.9711V77.956H42.1071V68.812H55.8111V66.628H42.1071V63.172H60.0111V72.244ZM64.3781 83.644V79.804H68.6261V83.644H64.3781ZM64.7141 77.692L64.3781 67.228V64.492H68.6261V67.228L68.3141 77.692H64.7141ZM79.3307 68.836V65.356H83.3627V62.164H87.5867V65.356H91.6667V68.836H87.5867V71.548C87.5867 77.692 89.3627 79.324 91.8827 80.38V83.956C89.2907 83.5 86.7707 81.844 85.4987 79.948C84.2267 81.916 81.5387 83.548 79.1147 83.956V80.38C81.6347 79.42 83.3627 77.74 83.3627 71.548V68.836H79.3307ZM93.2507 62.788H97.4507V71.452H100.547V74.956H97.4507V85.276H93.2507V62.788ZM102.442 66.652V63.172H114.706V66.652H110.674V71.548C110.674 77.692 112.402 79.324 114.922 80.38V83.956C112.33 83.5 109.858 81.844 108.562 79.948C107.314 81.916 104.674 83.548 102.202 83.956V80.38C104.746 79.42 106.474 77.74 106.474 71.548V66.652H102.442ZM116.29 62.788H120.49V71.452H123.586V74.956H120.49V85.276H116.29V62.788ZM135.129 71.764C133.401 74.02 129.609 76.036 125.577 76.588V73.06C130.305 72.028 133.017 69.556 133.017 64.612V63.052H137.217V64.612C137.217 69.46 139.881 72.004 144.705 73.06V76.588C140.793 76.036 136.857 74.02 135.129 71.764ZM145.185 84.34H125.121V80.86H145.185V84.34ZM154.112 73.492C154.112 68.98 154.016 67.108 153.584 66.484C153.464 66.292 153.296 66.196 153.08 66.196C152.888 66.196 152.672 66.292 152.576 66.484C152.12 67.108 152.024 68.98 152.024 73.492C152.024 78.028 152.12 79.9 152.576 80.548C152.672 80.716 152.888 80.812 153.08 80.812C153.296 80.812 153.464 80.716 153.584 80.548C154.016 79.9 154.112 78.028 154.112 73.492ZM148.376 73.492C148.376 68.044 148.88 65.164 150.32 63.772C150.968 63.124 151.88 62.812 153.08 62.812C154.256 62.812 155.168 63.124 155.864 63.772C157.04 64.948 157.592 67.204 157.736 71.212H159.032V62.932H162.68V85.06H159.032V74.74H157.76C157.664 79.42 157.136 81.964 155.864 83.236C155.168 83.908 154.256 84.172 153.08 84.172C151.88 84.172 150.968 83.908 150.32 83.236C148.88 81.868 148.376 78.988 148.376 73.492ZM167.408 62.788V85.276H163.688V62.788H167.408ZM177.535 79.804C176.431 81.796 173.815 83.452 171.031 83.98V80.332C173.647 79.276 175.447 77.476 175.447 71.212V63.052H179.647V71.212C179.647 77.476 181.399 79.228 184.039 80.332V83.98C181.279 83.476 178.759 81.772 177.535 79.804ZM185.935 62.788H190.135V85.276H185.935V73.78H181.567V70.252H185.935V62.788Z" fill="#0066FF"/>
<path d="M232.946 22.1133L203.5 62.5041L232.946 102.887H357V22.1133H232.946ZM266.673 75.0373C259.748 79.114 250.833 76.7973 246.756 69.8717C242.679 62.9462 244.996 54.0314 251.922 49.9546C258.847 45.8779 267.762 48.1946 271.839 55.1201C275.915 62.0457 273.599 70.9605 266.673 75.0373ZM300.114 87.0219L281.523 97.3938V40.4914L300.114 30.1194V87.0219ZM330.125 75.0373C323.199 79.114 314.284 76.7973 310.208 69.8717C306.131 62.9462 308.447 54.0314 315.373 49.9546C322.299 45.8779 331.213 48.1946 335.29 55.1201C339.367 62.0457 337.05 70.9605 330.125 75.0373Z" fill="#0066FF"/>
</g>
<defs>
<clipPath id="clip0_177_2073">
<rect x="0.5" width="335" height="125" rx="8" fill="white"/>
</clipPath>
</defs>
</svg>
