<svg width="25" height="24" viewBox="0 0 25 24" fill="none" xmlns="http://www.w3.org/2000/svg">
<path d="M12.2197 3.84076C12.5126 3.54787 12.9874 3.54787 13.2803 3.84076L21.9697 12.5301C22.2626 12.823 22.7374 12.823 23.0303 12.5301C23.3232 12.2372 23.3232 11.7623 23.0303 11.4694L14.341 2.7801C13.4623 1.90142 12.0377 1.90142 11.159 2.7801L2.46967 11.4694C2.17678 11.7623 2.17678 12.2372 2.46967 12.5301C2.76256 12.823 3.23744 12.823 3.53033 12.5301L12.2197 3.84076Z" fill="#0066FF"/>
<path d="M12.75 5.43176L20.909 13.5908C20.9387 13.6205 20.9691 13.6492 21 13.6769V19.8748C21 20.9103 20.1605 21.7498 19.125 21.7498H15.75C15.3358 21.7498 15 21.414 15 20.9998V16.4998C15 16.0856 14.6642 15.7498 14.25 15.7498H11.25C10.8358 15.7498 10.5 16.0856 10.5 16.4998V20.9998C10.5 21.414 10.1642 21.7498 9.75 21.7498H6.375C5.33947 21.7498 4.5 20.9103 4.5 19.8748V13.6769C4.53093 13.6492 4.56127 13.6205 4.59099 13.5908L12.75 5.43176Z" fill="#0066FF"/>
</svg>
