<svg width="25" height="24" viewBox="0 0 25 24" fill="none" xmlns="http://www.w3.org/2000/svg">
<path d="M4.01 16.3753L4.01883 16.3841C3.84796 16.5548 3.7625 16.7662 3.7625 17.0193V19C3.7625 19.6954 4.00324 20.2836 4.48484 20.7652C4.96644 21.2468 5.55457 21.4875 6.25 21.4875H11.423C11.6324 21.4875 11.8073 21.4169 11.9487 21.2757C12.0899 21.1346 12.1605 20.9598 12.1605 20.7502C12.1605 20.5409 12.0899 20.366 11.9487 20.2246C11.8073 20.0832 11.6324 20.0125 11.423 20.0125H6.25C5.96352 20.0125 5.72279 19.9155 5.52866 19.7213C5.33453 19.5272 5.2375 19.2865 5.2375 19V17.6152V17.6027H5.25H11.423C11.6324 17.6027 11.8073 17.5322 11.9487 17.3912C11.9487 17.3912 11.9487 17.3912 11.9487 17.3912M4.01 16.3753L12.173 16.8658C12.173 17.0782 12.1012 17.2563 11.9575 17.4L11.9487 17.3912M4.01 16.3753L4.01884 16.3841C4.18954 16.2134 4.40098 16.128 4.654 16.128H6.75H6.7625V16.1155V4.30775C6.7625 3.81392 6.93816 3.39151 7.28984 3.03984C7.64151 2.68816 8.06392 2.5125 8.55775 2.5125H18.9423C19.4361 2.5125 19.8585 2.68816 20.2102 3.03984C20.5618 3.39151 20.7375 3.81392 20.7375 4.30775V10.2115C20.7375 10.4209 20.6668 10.5958 20.5254 10.7372C20.384 10.8784 20.2091 10.949 19.9998 10.949C19.7902 10.949 19.6154 10.8784 19.4743 10.7372C19.3331 10.5958 19.2625 10.4209 19.2625 10.2115V4.30775C19.2625 4.21497 19.2326 4.13792 19.1723 4.07766C19.1121 4.0174 19.035 3.9875 18.9423 3.9875H8.55775C8.46497 3.9875 8.38792 4.0174 8.32766 4.07766C8.2674 4.13792 8.2375 4.21497 8.2375 4.30775V16.1155V16.128H8.25H11.423C11.6324 16.128 11.8073 16.1986 11.9487 16.3398M4.01 16.3753L11.9487 16.3398M11.9487 17.3912C12.0899 17.2499 12.1605 17.0751 12.1605 16.8658C12.1605 16.6562 12.0899 16.4812 11.9487 16.3398M11.9487 17.3912L11.9487 16.3398M19.8031 13.4626L19.8031 13.4626L14.6453 18.5953C14.5529 18.6879 14.4854 18.7885 14.4424 18.8971C14.4424 18.8971 14.4424 18.8971 14.4424 18.8971L19.8031 13.4626ZM19.8031 13.4626C19.9263 13.3394 20.059 13.253 20.2011 13.203C20.3441 13.153 20.4868 13.128 20.6295 13.128C20.7851 13.128 20.9356 13.1571 21.0811 13.2154C21.2264 13.2737 21.3586 13.3612 21.4777 13.4781C21.4777 13.4781 21.4777 13.4781 21.4777 13.4782L22.402 14.4119C22.4021 14.412 22.4022 14.4121 22.4023 14.4123C22.509 14.5357 22.5915 14.6691 22.6499 14.8125C22.7084 14.9559 22.7375 15.0992 22.7375 15.2423C22.7375 15.3855 22.7109 15.5315 22.6575 15.6803C22.6043 15.8285 22.5194 15.9642 22.4025 16.0873C22.4025 16.0873 22.4025 16.0874 22.4024 16.0874L17.2699 21.2199L17.2788 21.2288M19.8031 13.4626L17.2788 21.2288M17.2788 21.2288L17.2699 21.2199C17.1775 21.3125 17.077 21.3801 16.9684 21.4229L16.973 21.4345L17.2788 21.2288ZM9.66684 8.46766L9.66684 8.46767C9.80805 8.60904 9.9829 8.67975 10.1923 8.67975H17.3077C17.5171 8.67975 17.692 8.6092 17.8332 8.46816C17.9745 8.32695 18.0452 8.1521 18.0452 7.94275C18.0452 7.73323 17.9745 7.55821 17.8332 7.41683C17.6919 7.27546 17.5171 7.20475 17.3077 7.20475H10.1923C9.9829 7.20475 9.80804 7.27538 9.66684 7.41659L9.66683 7.4166C9.52547 7.55763 9.45475 7.73248 9.45475 7.942C9.45475 8.15135 9.52546 8.32629 9.66684 8.46766ZM17.8332 10.3016L17.8332 10.3016C17.9745 10.4428 18.0452 10.6177 18.0452 10.8273C18.0452 11.0368 17.9745 11.2116 17.8332 11.3527L17.8332 11.3527C17.692 11.4939 17.5171 11.5645 17.3077 11.5645H10.1923C9.9829 11.5645 9.80805 11.4938 9.66684 11.3524C9.52547 11.211 9.45475 11.036 9.45475 10.8265C9.45475 10.6172 9.52546 10.4423 9.66683 10.3011C9.80804 10.1601 9.98289 10.0895 10.1923 10.0895H17.3077C17.5171 10.0895 17.6919 10.1602 17.8332 10.3016ZM15.5452 20.3078V20.3203H15.5577H16.5078V20.3255L16.5166 20.3166L19.7626 17.0548L19.7713 17.0461L19.7627 17.0373L19.7627 17.0373L19.7626 17.0372L19.3032 16.5623L19.3031 16.5622L18.8377 16.0933L18.8377 16.0933L18.8376 16.0932L18.8288 16.0843L18.8199 16.0931L15.5489 19.3489L15.5452 19.3452V19.3577V20.3078Z" fill="#737373" stroke="#737373" stroke-width="0.025"/>
</svg>
