<svg width="25" height="24" viewBox="0 0 25 24" fill="none" xmlns="http://www.w3.org/2000/svg">
<path d="M9.375 12C9.375 12.2071 9.20711 12.375 9 12.375C8.79289 12.375 8.625 12.2071 8.625 12C8.625 11.7929 8.79289 11.625 9 11.625C9.20711 11.625 9.375 11.7929 9.375 12ZM9.375 12H9M13.125 12C13.125 12.2071 12.9571 12.375 12.75 12.375C12.5429 12.375 12.375 12.2071 12.375 12C12.375 11.7929 12.5429 11.625 12.75 11.625C12.9571 11.625 13.125 11.7929 13.125 12ZM13.125 12H12.75M16.875 12C16.875 12.2071 16.7071 12.375 16.5 12.375C16.2929 12.375 16.125 12.2071 16.125 12C16.125 11.7929 16.2929 11.625 16.5 11.625C16.7071 11.625 16.875 11.7929 16.875 12ZM16.875 12H16.5M21.75 12C21.75 16.5563 17.7206 20.25 12.75 20.25C11.8625 20.25 11.0051 20.1323 10.1952 19.9129C9.22016 20.5979 8.03201 21 6.75 21C6.55078 21 6.35376 20.9903 6.15967 20.9713C6 20.9558 5.8418 20.9339 5.68579 20.906C6.16932 20.3353 6.51277 19.6427 6.66389 18.8808C6.75454 18.4238 6.5307 17.9799 6.19684 17.6549C4.6797 16.1782 3.75 14.1886 3.75 12C3.75 7.44365 7.77944 3.75 12.75 3.75C17.7206 3.75 21.75 7.44365 21.75 12Z" stroke="#737373" stroke-width="1.5" stroke-linecap="round" stroke-linejoin="round"/>
</svg>
